<svg width="428" height="427" viewBox="0 0 428 427" fill="none" xmlns="http://www.w3.org/2000/svg">
<rect width="428" height="427" fill="#F5F5F5"/>
<g id="Compass">
<g id="Circle">
<line id="S" x1="214" y1="427" x2="214" y2="404" stroke="#D9D9D9" stroke-width="2"/>
<line id="N" x1="214" y1="23" x2="214" stroke="#D9D9D9" stroke-width="2"/>
<line id="Line" x1="158.255" y1="419.595" x2="164.208" y2="397.378" stroke="#E1E1E1"/>
<line id="Line_2" x1="262.826" y1="29.3627" x2="268.779" y2="7.14657" stroke="#E1E1E1"/>
<line id="Line_3" x1="106.813" y1="398.144" x2="118.314" y2="378.226" stroke="#E1E1E1"/>
<line id="Line_4" x1="308.82" y1="48.2741" x2="320.321" y2="28.3558" stroke="#E1E1E1"/>
<line id="Line_5" x1="62.676" y1="364.111" x2="78.9398" y2="347.847" stroke="#E1E1E1"/>
<line id="Line_6" x1="348.353" y1="78.4454" x2="364.617" y2="62.1823" stroke="#E1E1E1"/>
<line id="Line_7" x1="28.8514" y1="319.813" x2="48.7702" y2="308.314" stroke="#E1E1E1"/>
<line id="Line_8" x1="378.73" y1="117.82" x2="398.649" y2="106.321" stroke="#E1E1E1"/>
<line id="Line_9" x1="7.64431" y1="268.271" x2="29.8607" y2="262.318" stroke="#E1E1E1"/>
<line id="Line_10" x1="397.88" y1="163.716" x2="420.097" y2="157.763" stroke="#E1E1E1"/>
<line id="W" x1="0.5" y1="213.5" x2="23.5" y2="213.5" stroke="#D9D9D9" stroke-width="2"/>
<line id="E" x1="404.5" y1="213.5" x2="427.5" y2="213.5" stroke="#D9D9D9" stroke-width="2"/>
<line id="Line_11" x1="7.90539" y1="157.755" x2="30.1216" y2="163.708" stroke="#E1E1E1"/>
<line id="Line_12" x1="398.137" y1="262.326" x2="420.353" y2="268.279" stroke="#E1E1E1"/>
<line id="Line_13" x1="29.3558" y1="106.313" x2="49.2742" y2="117.814" stroke="#E1E1E1"/>
<line id="Line_14" x1="379.226" y1="308.32" x2="399.144" y2="319.821" stroke="#E1E1E1"/>
<line id="Line_15" x1="63.3894" y1="62.176" x2="79.6525" y2="78.4398" stroke="#E1E1E1"/>
<line id="Line_16" x1="349.055" y1="347.853" x2="365.318" y2="364.117" stroke="#E1E1E1"/>
<line id="Line_17" x1="107.687" y1="28.3514" x2="119.186" y2="48.2702" stroke="#E1E1E1"/>
<line id="Line_18" x1="309.68" y1="378.23" x2="321.179" y2="398.149" stroke="#E1E1E1"/>
<line id="Line_19" x1="159.229" y1="7.14431" x2="165.182" y2="29.3607" stroke="#E1E1E1"/>
<line id="Line_20" x1="263.784" y1="397.38" x2="269.737" y2="419.597" stroke="#E1E1E1"/>
<line id="Line_21" x1="185.561" y1="425.098" x2="188.571" y2="402.296" stroke="#E1E1E1"/>
<line id="Line_22" x1="238.438" y1="24.5733" x2="241.448" y2="1.77115" stroke="#E1E1E1"/>
<line id="Line_23" x1="131.764" y1="410.527" x2="140.573" y2="389.281" stroke="#E1E1E1"/>
<line id="Line_24" x1="286.503" y1="37.3358" x2="295.312" y2="16.0897" stroke="#E1E1E1"/>
<line id="Line_25" x1="83.5717" y1="382.529" x2="97.5798" y2="364.287" stroke="#E1E1E1"/>
<line id="Line_26" x1="329.627" y1="62.1036" x2="343.635" y2="43.8615" stroke="#E1E1E1"/>
<line id="Line_27" x1="44.2679" y1="343.013" x2="62.5201" y2="329.018" stroke="#E1E1E1"/>
<line id="Line_28" x1="364.871" y1="97.1887" x2="383.124" y2="83.1938" stroke="#E1E1E1"/>
<line id="Line_29" x1="16.531" y1="294.67" x2="37.7834" y2="285.876" stroke="#E1E1E1"/>
<line id="Line_30" x1="389.834" y1="140.2" x2="411.087" y2="131.406" stroke="#E1E1E1"/>
<line id="Line_31" x1="2.25138" y1="240.795" x2="25.0557" y2="237.801" stroke="#E1E1E1"/>
<line id="Line_32" x1="402.814" y1="188.207" x2="425.618" y2="185.213" stroke="#E1E1E1"/>
<line id="Line_33" x1="2.40205" y1="185.06" x2="25.2042" y2="188.071" stroke="#E1E1E1"/>
<line id="Line_34" x1="402.927" y1="237.938" x2="425.729" y2="240.948" stroke="#E1E1E1"/>
<line id="Line_35" x1="16.9727" y1="131.264" x2="38.2188" y2="140.073" stroke="#E1E1E1"/>
<line id="Line_36" x1="390.164" y1="286.003" x2="411.41" y2="294.812" stroke="#E1E1E1"/>
<line id="Line_37" x1="44.9705" y1="83.0717" x2="63.2126" y2="97.0798" stroke="#E1E1E1"/>
<line id="Line_38" x1="365.396" y1="329.127" x2="383.639" y2="343.135" stroke="#E1E1E1"/>
<line id="Line_39" x1="84.4874" y1="43.7679" x2="98.4823" y2="62.02" stroke="#E1E1E1"/>
<line id="Line_40" x1="330.311" y1="364.371" x2="344.306" y2="382.624" stroke="#E1E1E1"/>
<line id="Line_41" x1="132.83" y1="16.031" x2="141.624" y2="37.2834" stroke="#E1E1E1"/>
<line id="Line_42" x1="287.3" y1="389.334" x2="296.094" y2="410.587" stroke="#E1E1E1"/>
<line id="Line_43" x1="186.705" y1="1.75138" x2="189.699" y2="24.5557" stroke="#E1E1E1"/>
<line id="Line_44" x1="239.293" y1="402.314" x2="242.287" y2="425.118" stroke="#E1E1E1"/>
<line id="Line_45" x1="199.418" y1="426.502" x2="200.935" y2="403.552" stroke="#E1E1E1"/>
<line id="Line_46" x1="226.067" y1="23.3819" x2="227.584" y2="0.432028" stroke="#E1E1E1"/>
<line id="Line_47" x1="144.786" y1="415.47" x2="152.191" y2="393.695" stroke="#E1E1E1"/>
<line id="Line_48" x1="274.862" y1="32.9833" x2="282.267" y2="11.208" stroke="#E1E1E1"/>
<line id="Line_49" x1="94.8705" y1="390.674" x2="107.659" y2="371.557" stroke="#E1E1E1"/>
<line id="Line_50" x1="319.51" y1="54.8865" x2="332.298" y2="35.7699" stroke="#E1E1E1"/>
<line id="Line_51" x1="53.0737" y1="353.804" x2="70.3745" y2="338.649" stroke="#E1E1E1"/>
<line id="Line_52" x1="356.967" y1="87.599" x2="374.267" y2="72.4438" stroke="#E1E1E1"/>
<line id="Line_53" x1="22.2438" y1="307.373" x2="42.8776" y2="297.211" stroke="#E1E1E1"/>
<line id="Line_54" x1="384.681" y1="128.891" x2="405.314" y2="118.73" stroke="#E1E1E1"/>
<line id="Line_55" x1="4.48174" y1="254.544" x2="27.0423" y2="250.069" stroke="#E1E1E1"/>
<line id="Line_56" x1="400.763" y1="175.95" x2="423.324" y2="171.475" stroke="#E1E1E1"/>
<line id="Line_57" x1="0.998009" y1="198.918" x2="23.9479" y2="200.435" stroke="#E1E1E1"/>
<line id="Line_58" x1="404.118" y1="225.567" x2="427.068" y2="227.084" stroke="#E1E1E1"/>
<line id="Line_59" x1="12.0299" y1="144.286" x2="33.8052" y2="151.691" stroke="#E1E1E1"/>
<line id="Line_60" x1="394.517" y1="274.362" x2="416.292" y2="281.767" stroke="#E1E1E1"/>
<line id="Line_61" x1="36.8259" y1="94.3705" x2="55.9425" y2="107.159" stroke="#E1E1E1"/>
<line id="Line_62" x1="372.614" y1="319.01" x2="391.73" y2="331.798" stroke="#E1E1E1"/>
<line id="Line_63" x1="73.6959" y1="52.5737" x2="88.8512" y2="69.8745" stroke="#E1E1E1"/>
<line id="Line_64" x1="339.901" y1="356.467" x2="355.056" y2="373.767" stroke="#E1E1E1"/>
<line id="Line_65" x1="120.127" y1="21.7438" x2="130.289" y2="42.3776" stroke="#E1E1E1"/>
<line id="Line_66" x1="298.609" y1="384.181" x2="308.77" y2="404.814" stroke="#E1E1E1"/>
<line id="Line_67" x1="172.956" y1="3.98174" x2="177.431" y2="26.5423" stroke="#E1E1E1"/>
<line id="Line_68" x1="251.55" y1="400.263" x2="256.025" y2="422.824" stroke="#E1E1E1"/>
<line id="Line_69" x1="171.669" y1="422.762" x2="176.177" y2="400.208" stroke="#E1E1E1"/>
<line id="Line_70" x1="250.843" y1="26.596" x2="255.35" y2="4.04198" stroke="#E1E1E1"/>
<line id="Line_71" x1="118.95" y1="404.676" x2="129.142" y2="384.057" stroke="#E1E1E1"/>
<line id="Line_72" x1="297.962" y1="42.5002" x2="308.153" y2="21.8813" stroke="#E1E1E1"/>
<line id="Line_73" x1="72.7093" y1="373.561" x2="87.8899" y2="356.282" stroke="#E1E1E1"/>
<line id="Line_74" x1="339.359" y1="70.0578" x2="354.539" y2="52.7792" stroke="#E1E1E1"/>
<line id="Line_75" x1="36.0969" y1="331.538" x2="55.2322" y2="318.777" stroke="#E1E1E1"/>
<line id="Line_76" x1="372.213" y1="107.391" x2="391.348" y2="94.6299" stroke="#E1E1E1"/>
<line id="Line_77" x1="11.6083" y1="281.471" x2="33.3944" y2="274.098" stroke="#E1E1E1"/>
<line id="Line_78" x1="394.285" y1="151.955" x2="416.071" y2="144.581" stroke="#E1E1E1"/>
<line id="Line_79" x1="0.912359" y1="226.772" x2="23.8645" y2="225.289" stroke="#E1E1E1"/>
<line id="Line_80" x1="404.071" y1="200.713" x2="427.023" y2="199.23" stroke="#E1E1E1"/>
<line id="Line_81" x1="4.738" y1="171.169" x2="27.292" y2="175.676" stroke="#E1E1E1"/>
<line id="Line_82" x1="400.904" y1="250.343" x2="423.458" y2="254.85" stroke="#E1E1E1"/>
<line id="Line_83" x1="22.8244" y1="118.45" x2="43.4433" y2="128.642" stroke="#E1E1E1"/>
<line id="Line_84" x1="385" y1="297.462" x2="405.619" y2="307.653" stroke="#E1E1E1"/>
<line id="Line_85" x1="53.9392" y1="72.2093" x2="71.2179" y2="87.3898" stroke="#E1E1E1"/>
<line id="Line_86" x1="357.442" y1="338.859" x2="374.721" y2="354.039" stroke="#E1E1E1"/>
<line id="Line_87" x1="95.9619" y1="35.5969" x2="108.723" y2="54.7322" stroke="#E1E1E1"/>
<line id="Line_88" x1="320.109" y1="371.713" x2="332.87" y2="390.848" stroke="#E1E1E1"/>
<line id="Line_89" x1="146.029" y1="11.1083" x2="153.402" y2="32.8943" stroke="#E1E1E1"/>
<line id="Line_90" x1="275.545" y1="393.785" x2="282.919" y2="415.571" stroke="#E1E1E1"/>
<line id="Line_91" x1="200.728" y1="0.412328" x2="202.211" y2="23.3644" stroke="#E1E1E1"/>
<line id="Line_92" x1="226.787" y1="403.571" x2="228.27" y2="426.523" stroke="#E1E1E1"/>
<line id="Line_93" x1="206.493" y1="426.869" x2="207.248" y2="403.881" stroke="#E1E1E1"/>
<line id="Line_94" x1="219.752" y1="23.0862" x2="220.507" y2="0.0985962" stroke="#E1E1E1"/>
<line id="Line_95" x1="151.525" y1="417.655" x2="158.204" y2="395.646" stroke="#E1E1E1"/>
<line id="Line_96" x1="268.839" y1="31.0632" x2="275.518" y2="9.05421" stroke="#E1E1E1"/>
<line id="Line_97" x1="100.815" y1="394.529" x2="112.962" y2="374.999" stroke="#E1E1E1"/>
<line id="Line_98" x1="314.188" y1="51.4729" x2="326.336" y2="31.9425" stroke="#E1E1E1"/>
<line id="Line_99" x1="57.8177" y1="359.066" x2="74.6061" y2="343.345" stroke="#E1E1E1"/>
<line id="Line_100" x1="352.71" y1="82.9246" x2="369.499" y2="67.2036" stroke="#E1E1E1"/>
<line id="Line_101" x1="25.4641" y1="313.683" x2="45.7494" y2="302.843" stroke="#E1E1E1"/>
<line id="Line_102" x1="381.779" y1="123.275" x2="402.065" y2="112.435" stroke="#E1E1E1"/>
<line id="Line_103" x1="5.9589" y1="261.473" x2="28.3586" y2="256.253" stroke="#E1E1E1"/>
<line id="Line_104" x1="399.414" y1="169.774" x2="421.814" y2="164.553" stroke="#E1E1E1"/>
<line id="Line_105" x1="0.6314" y1="205.993" x2="23.619" y2="206.748" stroke="#E1E1E1"/>
<line id="Line_106" x1="404.414" y1="219.252" x2="427.401" y2="220.007" stroke="#E1E1E1"/>
<line id="Line_107" x1="9.84453" y1="151.025" x2="31.8535" y2="157.704" stroke="#E1E1E1"/>
<line id="Line_108" x1="396.437" y1="268.339" x2="418.446" y2="275.018" stroke="#E1E1E1"/>
<line id="Line_109" x1="32.9706" y1="100.315" x2="52.5011" y2="112.462" stroke="#E1E1E1"/>
<line id="Line_110" x1="376.027" y1="313.688" x2="395.557" y2="325.836" stroke="#E1E1E1"/>
<line id="Line_111" x1="68.4335" y1="57.3177" x2="84.1545" y2="74.1062" stroke="#E1E1E1"/>
<line id="Line_112" x1="344.575" y1="352.21" x2="360.296" y2="368.999" stroke="#E1E1E1"/>
<line id="Line_113" x1="113.817" y1="24.9641" x2="124.657" y2="45.2494" stroke="#E1E1E1"/>
<line id="Line_114" x1="304.225" y1="381.279" x2="315.065" y2="401.565" stroke="#E1E1E1"/>
<line id="Line_115" x1="166.027" y1="5.45893" x2="171.247" y2="27.8586" stroke="#E1E1E1"/>
<line id="Line_116" x1="257.726" y1="398.914" x2="262.947" y2="421.314" stroke="#E1E1E1"/>
<line id="Line_117" x1="178.636" y1="424.051" x2="182.392" y2="401.36" stroke="#E1E1E1"/>
<line id="Line_118" x1="244.621" y1="25.4765" x2="248.378" y2="2.78531" stroke="#E1E1E1"/>
<line id="Line_119" x1="125.346" y1="407.724" x2="134.848" y2="386.778" stroke="#E1E1E1"/>
<line id="Line_120" x1="292.242" y1="39.8085" x2="301.743" y2="18.8628" stroke="#E1E1E1"/>
<line id="Line_121" x1="78.098" y1="378.161" x2="92.6969" y2="360.388" stroke="#E1E1E1"/>
<line id="Line_122" x1="334.53" y1="65.9773" x2="349.129" y2="48.2045" stroke="#E1E1E1"/>
<line id="Line_123" x1="40.1114" y1="337.376" x2="58.8128" y2="323.987" stroke="#E1E1E1"/>
<line id="Line_124" x1="368.605" y1="102.2" x2="387.306" y2="88.8108" stroke="#E1E1E1"/>
<line id="Line_125" x1="13.9751" y1="288.149" x2="35.5045" y2="280.057" stroke="#E1E1E1"/>
<line id="Line_126" x1="392.144" y1="146.007" x2="413.673" y2="137.915" stroke="#E1E1E1"/>
<line id="Line_127" x1="1.47007" y1="233.836" x2="24.3603" y2="231.591" stroke="#E1E1E1"/>
<line id="Line_128" x1="403.542" y1="194.414" x2="426.432" y2="192.169" stroke="#E1E1E1"/>
<line id="Line_129" x1="3.44861" y1="178.136" x2="26.1398" y2="181.892" stroke="#E1E1E1"/>
<line id="Line_130" x1="402.023" y1="244.121" x2="424.715" y2="247.878" stroke="#E1E1E1"/>
<line id="Line_131" x1="19.7759" y1="124.846" x2="40.7216" y2="134.348" stroke="#E1E1E1"/>
<line id="Line_132" x1="387.691" y1="291.742" x2="408.637" y2="301.243" stroke="#E1E1E1"/>
<line id="Line_133" x1="49.3392" y1="77.598" x2="67.1121" y2="92.1969" stroke="#E1E1E1"/>
<line id="Line_134" x1="361.523" y1="334.03" x2="379.295" y2="348.629" stroke="#E1E1E1"/>
<line id="Line_135" x1="90.1239" y1="39.6114" x2="103.513" y2="58.3128" stroke="#E1E1E1"/>
<line id="Line_136" x1="325.3" y1="368.105" x2="338.689" y2="386.806" stroke="#E1E1E1"/>
<line id="Line_137" x1="139.351" y1="13.4751" x2="147.443" y2="35.0045" stroke="#E1E1E1"/>
<line id="Line_138" x1="281.493" y1="391.644" x2="289.585" y2="413.173" stroke="#E1E1E1"/>
<line id="Line_139" x1="193.664" y1="0.97007" x2="195.909" y2="23.8603" stroke="#E1E1E1"/>
<line id="Line_140" x1="233.086" y1="403.042" x2="235.331" y2="425.932" stroke="#E1E1E1"/>
<line id="Line_141" x1="192.44" y1="425.909" x2="194.709" y2="403.021" stroke="#E1E1E1"/>
<line id="Line_142" x1="232.296" y1="23.88" x2="234.565" y2="0.992164" stroke="#E1E1E1"/>
<line id="Line_143" x1="138.199" y1="413.091" x2="146.314" y2="391.571" stroke="#E1E1E1"/>
<line id="Line_144" x1="280.75" y1="35.0765" x2="288.866" y2="13.5559" stroke="#E1E1E1"/>
<line id="Line_145" x1="89.1236" y1="386.672" x2="102.533" y2="367.985" stroke="#E1E1E1"/>
<line id="Line_146" x1="324.655" y1="58.4323" x2="338.064" y2="39.7454" stroke="#E1E1E1"/>
<line id="Line_147" x1="48.5586" y1="348.451" x2="66.3472" y2="333.871" stroke="#E1E1E1"/>
<line id="Line_148" x1="361.019" y1="92.3557" x2="378.807" y2="77.776" stroke="#E1E1E1"/>
<line id="Line_149" x1="19.2681" y1="301.033" x2="40.2241" y2="291.554" stroke="#E1E1E1"/>
<line id="Line_150" x1="387.364" y1="134.535" x2="408.32" y2="125.056" stroke="#E1E1E1"/>
<line id="Line_151" x1="3.24827" y1="247.65" x2="25.9435" y2="243.918" stroke="#E1E1E1"/>
<line id="Line_152" x1="401.894" y1="182.095" x2="424.589" y2="178.363" stroke="#E1E1E1"/>
<line id="Line_153" x1="1.5908" y1="191.94" x2="24.4786" y2="194.209" stroke="#E1E1E1"/>
<line id="Line_154" x1="403.62" y1="231.796" x2="426.508" y2="234.065" stroke="#E1E1E1"/>
<line id="Line_155" x1="14.4087" y1="137.699" x2="35.9293" y2="145.814" stroke="#E1E1E1"/>
<line id="Line_156" x1="392.423" y1="280.25" x2="413.944" y2="288.365" stroke="#E1E1E1"/>
<line id="Line_157" x1="40.8284" y1="88.6236" x2="59.5153" y2="102.033" stroke="#E1E1E1"/>
<line id="Line_158" x1="369.068" y1="324.155" x2="387.755" y2="337.564" stroke="#E1E1E1"/>
<line id="Line_159" x1="79.0494" y1="48.0586" x2="93.6291" y2="65.8472" stroke="#E1E1E1"/>
<line id="Line_160" x1="335.144" y1="360.519" x2="349.724" y2="378.307" stroke="#E1E1E1"/>
<line id="Line_161" x1="126.467" y1="18.7681" x2="135.946" y2="39.7241" stroke="#E1E1E1"/>
<line id="Line_162" x1="292.965" y1="386.864" x2="302.444" y2="407.82" stroke="#E1E1E1"/>
<line id="Line_163" x1="179.85" y1="2.74827" x2="183.582" y2="25.4435" stroke="#E1E1E1"/>
<line id="Line_164" x1="245.405" y1="401.394" x2="249.137" y2="424.089" stroke="#E1E1E1"/>
<line id="Line_165" x1="164.829" y1="421.261" x2="170.073" y2="398.867" stroke="#E1E1E1"/>
<line id="Line_166" x1="256.953" y1="27.9049" x2="262.198" y2="5.51087" stroke="#E1E1E1"/>
<line id="Line_167" x1="112.731" y1="401.455" x2="123.593" y2="381.182" stroke="#E1E1E1"/>
<line id="Line_168" x1="303.525" y1="45.346" x2="314.387" y2="25.0725" stroke="#E1E1E1"/>
<line id="Line_169" x1="67.5357" y1="368.841" x2="83.2748" y2="352.069" stroke="#E1E1E1"/>
<line id="Line_170" x1="343.996" y1="74.2465" x2="359.735" y2="57.4751" stroke="#E1E1E1"/>
<line id="Line_171" x1="32.3212" y1="325.64" x2="51.8648" y2="313.513" stroke="#E1E1E1"/>
<line id="Line_172" x1="375.608" y1="112.637" x2="395.152" y2="100.511" stroke="#E1E1E1"/>
<line id="Line_173" x1="9.48788" y1="274.797" x2="31.504" y2="268.142" stroke="#E1E1E1"/>
<line id="Line_174" x1="396.207" y1="157.901" x2="418.223" y2="151.246" stroke="#E1E1E1"/>
<line id="Line_175" x1="0.591705" y1="219.776" x2="23.5801" y2="219.046" stroke="#E1E1E1"/>
<line id="Line_176" x1="404.388" y1="206.954" x2="427.377" y2="206.224" stroke="#E1E1E1"/>
<line id="Line_177" x1="6.23892" y1="164.328" x2="28.633" y2="169.573" stroke="#E1E1E1"/>
<line id="Line_178" x1="399.595" y1="256.453" x2="421.989" y2="261.698" stroke="#E1E1E1"/>
<line id="Line_179" x1="26.0447" y1="112.231" x2="46.3183" y2="123.093" stroke="#E1E1E1"/>
<line id="Line_180" x1="382.154" y1="303.025" x2="402.428" y2="313.887" stroke="#E1E1E1"/>
<line id="Line_181" x1="58.6594" y1="67.0357" x2="75.4309" y2="82.7747" stroke="#E1E1E1"/>
<line id="Line_182" x1="353.254" y1="343.496" x2="370.025" y2="359.235" stroke="#E1E1E1"/>
<line id="Line_183" x1="101.86" y1="31.8212" x2="113.987" y2="51.3648" stroke="#E1E1E1"/>
<line id="Line_184" x1="314.863" y1="375.108" x2="326.989" y2="394.652" stroke="#E1E1E1"/>
<line id="Line_185" x1="152.703" y1="8.9879" x2="159.358" y2="31.0041" stroke="#E1E1E1"/>
<line id="Line_186" x1="269.599" y1="395.707" x2="276.254" y2="417.723" stroke="#E1E1E1"/>
<line id="Line_187" x1="207.723" y1="0.091644" x2="208.453" y2="23.0801" stroke="#E1E1E1"/>
<line id="Line_188" x1="220.546" y1="403.888" x2="221.276" y2="426.877" stroke="#E1E1E1"/>
</g>
<g id="Arrow">
<rect id="Rectangle 1" x="216.726" y="395.619" width="75.0614" height="6.9694" rx="0.5" transform="rotate(-91.1292 216.726 395.619)" fill="white" stroke="white"/>
<rect id="Rectangle 2" x="212.447" y="105.723" width="75.0614" height="6.9694" rx="0.5" transform="rotate(-91.1292 212.447 105.723)" fill="white" stroke="white"/>
<circle id="Ellipse 1" cx="220.313" cy="408.491" r="11" transform="rotate(-113.785 220.313 408.491)" stroke="white" stroke-width="9"/>
<path id="Vector 1" d="M197.458 35.5329L197.147 37.3088L197.349 37.7663L198.923 37.6189L200.753 36.8123L206.244 34.3925L208.532 33.3842L209.702 32.3217L210.563 33.0352L210.509 34.1519L218.784 34.3299L218.838 33.2131L219.35 31.8948L221.986 32.9183L224.825 34.3994L232.479 38.1292L233.394 37.7259L232.44 34.3215L230.02 28.8311L226.74 22.6272L225.731 20.3396L218.969 7.47439L217.099 4.4733L215.432 1.92975L214.571 1.21633L214.114 1.41798L213.656 1.61963L212.687 3.13965L211.462 5.31886L209.725 8.81643L205.739 17.1299L204.002 20.6275L201.497 26.1026L199.249 30.9186L197.458 35.5329Z" fill="white"/>
</g>
<circle id="inner" cx="215.5" cy="214.5" r="109.5" fill="#D9D9D9"/>
<path id="NorthArrow" d="M214.12 2.63368C214.497 1.93284 215.503 1.93284 215.88 2.63368L226.33 22.0256C226.689 22.6919 226.206 23.5 225.45 23.5H204.55C203.794 23.5 203.311 22.6919 203.67 22.0256L214.12 2.63368Z" fill="#D9D9D9"/>
<g id="Names">
<g id="North">
<mask id="path-199-outside-1_0_1" maskUnits="userSpaceOnUse" x="201" y="32" width="26" height="32" fill="black">
<rect fill="white" x="201" y="32" width="26" height="32"/>
<path d="M225.591 33.9091V63H222.182L206.33 40.1591H206.045V63H202.523V33.9091H205.932L221.841 56.8068H222.125V33.9091H225.591Z"/>
</mask>
<path d="M225.591 33.9091V63H222.182L206.33 40.1591H206.045V63H202.523V33.9091H205.932L221.841 56.8068H222.125V33.9091H225.591Z" fill="#D9D9D9"/>
<path d="M225.591 33.9091H226.591V32.9091H225.591V33.9091ZM225.591 63V64H226.591V63H225.591ZM222.182 63L221.36 63.5702L221.659 64H222.182V63ZM206.33 40.1591L207.151 39.5889L206.853 39.1591H206.33V40.1591ZM206.045 40.1591V39.1591H205.045V40.1591H206.045ZM206.045 63V64H207.045V63H206.045ZM202.523 63H201.523V64H202.523V63ZM202.523 33.9091V32.9091H201.523V33.9091H202.523ZM205.932 33.9091L206.753 33.3385L206.455 32.9091H205.932V33.9091ZM221.841 56.8068L221.02 57.3774L221.318 57.8068H221.841V56.8068ZM222.125 56.8068V57.8068H223.125V56.8068H222.125ZM222.125 33.9091V32.9091H221.125V33.9091H222.125ZM224.591 33.9091V63H226.591V33.9091H224.591ZM225.591 62H222.182V64H225.591V62ZM223.003 62.4298L207.151 39.5889L205.508 40.7293L221.36 63.5702L223.003 62.4298ZM206.33 39.1591H206.045V41.1591H206.33V39.1591ZM205.045 40.1591V63H207.045V40.1591H205.045ZM206.045 62H202.523V64H206.045V62ZM203.523 63V33.9091H201.523V63H203.523ZM202.523 34.9091H205.932V32.9091H202.523V34.9091ZM205.111 34.4797L221.02 57.3774L222.662 56.2362L206.753 33.3385L205.111 34.4797ZM221.841 57.8068H222.125V55.8068H221.841V57.8068ZM223.125 56.8068V33.9091H221.125V56.8068H223.125ZM222.125 34.9091H225.591V32.9091H222.125V34.9091Z" fill="#D9D9D9" mask="url(#path-199-outside-1_0_1)"/>
</g>
<g id="West">
<mask id="path-201-outside-2_0_1" maskUnits="userSpaceOnUse" x="31" y="197" width="40" height="32" fill="black">
<rect fill="white" x="31" y="197" width="40" height="32"/>
<path d="M40.8068 228L32.8523 198.909H36.4318L42.5114 222.602H42.7955L48.9886 198.909H52.9659L59.1591 222.602H59.4432L65.5227 198.909H69.1023L61.1477 228H57.5114L51.0909 204.818H50.8636L44.4432 228H40.8068Z"/>
</mask>
<path d="M40.8068 228L32.8523 198.909H36.4318L42.5114 222.602H42.7955L48.9886 198.909H52.9659L59.1591 222.602H59.4432L65.5227 198.909H69.1023L61.1477 228H57.5114L51.0909 204.818H50.8636L44.4432 228H40.8068Z" fill="#D9D9D9"/>
<path d="M40.8068 228L39.8422 228.264L40.0435 229H40.8068V228ZM32.8523 198.909V197.909H31.5421L31.8877 199.173L32.8523 198.909ZM36.4318 198.909L37.4004 198.661L37.2076 197.909H36.4318V198.909ZM42.5114 222.602L41.5427 222.851L41.7356 223.602H42.5114V222.602ZM42.7955 222.602V223.602H43.5677L43.7629 222.855L42.7955 222.602ZM48.9886 198.909V197.909H48.2164L48.0211 198.656L48.9886 198.909ZM52.9659 198.909L53.9334 198.656L53.7381 197.909H52.9659V198.909ZM59.1591 222.602L58.1916 222.855L58.3869 223.602H59.1591V222.602ZM59.4432 222.602V223.602H60.219L60.4118 222.851L59.4432 222.602ZM65.5227 198.909V197.909H64.7469L64.5541 198.661L65.5227 198.909ZM69.1023 198.909L70.0669 199.173L70.4124 197.909H69.1023V198.909ZM61.1477 228V229H61.911L62.1123 228.264L61.1477 228ZM57.5114 228L56.5476 228.267L56.7507 229H57.5114V228ZM51.0909 204.818L52.0546 204.551L51.8516 203.818H51.0909V204.818ZM50.8636 204.818V203.818H50.103L49.8999 204.551L50.8636 204.818ZM44.4432 228V229H45.2039L45.4069 228.267L44.4432 228ZM41.7714 227.736L33.8169 198.645L31.8877 199.173L39.8422 228.264L41.7714 227.736ZM32.8523 199.909H36.4318V197.909H32.8523V199.909ZM35.4632 199.158L41.5427 222.851L43.48 222.354L37.4004 198.661L35.4632 199.158ZM42.5114 223.602H42.7955V221.602H42.5114V223.602ZM43.7629 222.855L49.9561 199.162L48.0211 198.656L41.828 222.349L43.7629 222.855ZM48.9886 199.909H52.9659V197.909H48.9886V199.909ZM51.9984 199.162L58.1916 222.855L60.1266 222.349L53.9334 198.656L51.9984 199.162ZM59.1591 223.602H59.4432V221.602H59.1591V223.602ZM60.4118 222.851L66.4913 199.158L64.5541 198.661L58.4746 222.354L60.4118 222.851ZM65.5227 199.909H69.1023V197.909H65.5227V199.909ZM68.1377 198.645L60.1831 227.736L62.1123 228.264L70.0669 199.173L68.1377 198.645ZM61.1477 227H57.5114V229H61.1477V227ZM58.4751 227.733L52.0546 204.551L50.1272 205.085L56.5476 228.267L58.4751 227.733ZM51.0909 203.818H50.8636V205.818H51.0909V203.818ZM49.8999 204.551L43.4795 227.733L45.4069 228.267L51.8274 205.085L49.8999 204.551ZM44.4432 227H40.8068V229H44.4432V227Z" fill="#D9D9D9" mask="url(#path-201-outside-2_0_1)"/>
</g>
<g id="East">
<mask id="path-203-outside-3_0_1" maskUnits="userSpaceOnUse" x="376" y="197" width="21" height="32" fill="black">
<rect fill="white" x="376" y="197" width="21" height="32"/>
<path d="M377.523 228V198.909H395.08V202.034H381.045V211.864H394.17V214.989H381.045V224.875H395.307V228H377.523Z"/>
</mask>
<path d="M377.523 228V198.909H395.08V202.034H381.045V211.864H394.17V214.989H381.045V224.875H395.307V228H377.523Z" fill="#D9D9D9"/>
<path d="M377.523 228H376.523V229H377.523V228ZM377.523 198.909V197.909H376.523V198.909H377.523ZM395.08 198.909H396.08V197.909H395.08V198.909ZM395.08 202.034V203.034H396.08V202.034H395.08ZM381.045 202.034V201.034H380.045V202.034H381.045ZM381.045 211.864H380.045V212.864H381.045V211.864ZM394.17 211.864H395.17V210.864H394.17V211.864ZM394.17 214.989V215.989H395.17V214.989H394.17ZM381.045 214.989V213.989H380.045V214.989H381.045ZM381.045 224.875H380.045V225.875H381.045V224.875ZM395.307 224.875H396.307V223.875H395.307V224.875ZM395.307 228V229H396.307V228H395.307ZM378.523 228V198.909H376.523V228H378.523ZM377.523 199.909H395.08V197.909H377.523V199.909ZM394.08 198.909V202.034H396.08V198.909H394.08ZM395.08 201.034H381.045V203.034H395.08V201.034ZM380.045 202.034V211.864H382.045V202.034H380.045ZM381.045 212.864H394.17V210.864H381.045V212.864ZM393.17 211.864V214.989H395.17V211.864H393.17ZM394.17 213.989H381.045V215.989H394.17V213.989ZM380.045 214.989V224.875H382.045V214.989H380.045ZM381.045 225.875H395.307V223.875H381.045V225.875ZM394.307 224.875V228H396.307V224.875H394.307ZM395.307 227H377.523V229H395.307V227Z" fill="#D9D9D9" mask="url(#path-203-outside-3_0_1)"/>
</g>
<g id="South">
<mask id="path-205-outside-4_0_1" maskUnits="userSpaceOnUse" x="203" y="362" width="24" height="33" fill="black">
<rect fill="white" x="203" y="362" width="24" height="33"/>
<path d="M221.432 371.182C221.261 369.742 220.57 368.625 219.358 367.83C218.146 367.034 216.659 366.636 214.898 366.636C213.61 366.636 212.483 366.845 211.517 367.261C210.561 367.678 209.813 368.251 209.273 368.98C208.742 369.709 208.477 370.538 208.477 371.466C208.477 372.242 208.662 372.91 209.031 373.469C209.41 374.018 209.893 374.477 210.48 374.847C211.067 375.206 211.683 375.505 212.327 375.741C212.971 375.969 213.562 376.153 214.102 376.295L217.057 377.091C217.814 377.29 218.657 377.564 219.585 377.915C220.523 378.265 221.418 378.743 222.27 379.349C223.132 379.946 223.842 380.713 224.401 381.651C224.959 382.588 225.239 383.739 225.239 385.102C225.239 386.674 224.827 388.095 224.003 389.364C223.188 390.633 221.995 391.641 220.423 392.389C218.861 393.137 216.962 393.511 214.727 393.511C212.644 393.511 210.84 393.175 209.315 392.503C207.8 391.83 206.607 390.893 205.736 389.69C204.874 388.488 204.386 387.091 204.273 385.5H207.909C208.004 386.598 208.373 387.508 209.017 388.227C209.67 388.937 210.494 389.468 211.489 389.818C212.492 390.159 213.572 390.33 214.727 390.33C216.072 390.33 217.279 390.112 218.349 389.676C219.42 389.231 220.267 388.616 220.892 387.83C221.517 387.034 221.83 386.106 221.83 385.045C221.83 384.08 221.56 383.294 221.02 382.688C220.48 382.081 219.77 381.589 218.889 381.21C218.009 380.831 217.057 380.5 216.034 380.216L212.455 379.193C210.182 378.54 208.383 377.607 207.057 376.395C205.731 375.183 205.068 373.597 205.068 371.636C205.068 370.008 205.509 368.587 206.389 367.375C207.279 366.153 208.473 365.206 209.969 364.534C211.474 363.852 213.155 363.511 215.011 363.511C216.886 363.511 218.553 363.848 220.011 364.52C221.47 365.183 222.625 366.092 223.477 367.247C224.339 368.402 224.794 369.714 224.841 371.182H221.432Z"/>
</mask>
<path d="M221.432 371.182C221.261 369.742 220.57 368.625 219.358 367.83C218.146 367.034 216.659 366.636 214.898 366.636C213.61 366.636 212.483 366.845 211.517 367.261C210.561 367.678 209.813 368.251 209.273 368.98C208.742 369.709 208.477 370.538 208.477 371.466C208.477 372.242 208.662 372.91 209.031 373.469C209.41 374.018 209.893 374.477 210.48 374.847C211.067 375.206 211.683 375.505 212.327 375.741C212.971 375.969 213.562 376.153 214.102 376.295L217.057 377.091C217.814 377.29 218.657 377.564 219.585 377.915C220.523 378.265 221.418 378.743 222.27 379.349C223.132 379.946 223.842 380.713 224.401 381.651C224.959 382.588 225.239 383.739 225.239 385.102C225.239 386.674 224.827 388.095 224.003 389.364C223.188 390.633 221.995 391.641 220.423 392.389C218.861 393.137 216.962 393.511 214.727 393.511C212.644 393.511 210.84 393.175 209.315 392.503C207.8 391.83 206.607 390.893 205.736 389.69C204.874 388.488 204.386 387.091 204.273 385.5H207.909C208.004 386.598 208.373 387.508 209.017 388.227C209.67 388.937 210.494 389.468 211.489 389.818C212.492 390.159 213.572 390.33 214.727 390.33C216.072 390.33 217.279 390.112 218.349 389.676C219.42 389.231 220.267 388.616 220.892 387.83C221.517 387.034 221.83 386.106 221.83 385.045C221.83 384.08 221.56 383.294 221.02 382.688C220.48 382.081 219.77 381.589 218.889 381.21C218.009 380.831 217.057 380.5 216.034 380.216L212.455 379.193C210.182 378.54 208.383 377.607 207.057 376.395C205.731 375.183 205.068 373.597 205.068 371.636C205.068 370.008 205.509 368.587 206.389 367.375C207.279 366.153 208.473 365.206 209.969 364.534C211.474 363.852 213.155 363.511 215.011 363.511C216.886 363.511 218.553 363.848 220.011 364.52C221.47 365.183 222.625 366.092 223.477 367.247C224.339 368.402 224.794 369.714 224.841 371.182H221.432Z" fill="#D9D9D9"/>
<path d="M221.432 371.182L220.439 371.299L220.543 372.182H221.432V371.182ZM219.358 367.83L218.809 368.666L218.809 368.666L219.358 367.83ZM211.517 367.261L211.121 366.343L211.118 366.345L211.517 367.261ZM209.273 368.98L208.469 368.385L208.464 368.392L209.273 368.98ZM209.031 373.469L208.197 374.02L208.202 374.028L208.208 374.036L209.031 373.469ZM210.48 374.847L209.948 375.693L209.958 375.699L210.48 374.847ZM212.327 375.741L211.982 376.68L211.994 376.684L212.327 375.741ZM214.102 376.295L214.362 375.33L214.357 375.328L214.102 376.295ZM217.057 377.091L216.797 378.057L216.803 378.058L217.057 377.091ZM219.585 377.915L219.232 378.85L219.235 378.851L219.585 377.915ZM222.27 379.349L221.69 380.164L221.701 380.172L222.27 379.349ZM224.401 381.651L225.26 381.139L225.26 381.139L224.401 381.651ZM224.003 389.364L223.164 388.819L223.161 388.824L224.003 389.364ZM220.423 392.389L219.994 391.486L219.991 391.487L220.423 392.389ZM209.315 392.503L208.91 393.417L208.912 393.418L209.315 392.503ZM205.736 389.69L204.923 390.273L204.926 390.277L205.736 389.69ZM204.273 385.5V384.5H203.199L203.275 385.571L204.273 385.5ZM207.909 385.5L208.905 385.414L208.827 384.5H207.909V385.5ZM209.017 388.227L208.272 388.894L208.281 388.904L209.017 388.227ZM211.489 389.818L211.156 390.761L211.167 390.765L211.489 389.818ZM218.349 389.676L218.726 390.602L218.733 390.599L218.349 389.676ZM220.892 387.83L221.675 388.452L221.678 388.447L220.892 387.83ZM221.02 382.688L221.767 382.022L221.767 382.022L221.02 382.688ZM218.889 381.21L218.494 382.129L218.494 382.129L218.889 381.21ZM216.034 380.216L215.759 381.177L215.766 381.179L216.034 380.216ZM212.455 379.193L212.178 380.154L212.18 380.155L212.455 379.193ZM207.057 376.395L206.382 377.133L206.382 377.133L207.057 376.395ZM206.389 367.375L205.581 366.786L205.58 366.787L206.389 367.375ZM209.969 364.534L210.379 365.446L210.381 365.445L209.969 364.534ZM220.011 364.52L219.593 365.428L219.598 365.43L220.011 364.52ZM223.477 367.247L222.673 367.841L222.676 367.845L223.477 367.247ZM224.841 371.182V372.182H225.874L225.84 371.15L224.841 371.182ZM222.425 371.064C222.22 369.331 221.366 367.951 219.907 366.993L218.809 368.666C219.775 369.299 220.303 370.153 220.439 371.299L222.425 371.064ZM219.907 366.993C218.499 366.07 216.812 365.636 214.898 365.636V367.636C216.506 367.636 217.792 367.998 218.809 368.666L219.907 366.993ZM214.898 365.636C213.503 365.636 212.237 365.862 211.121 366.343L211.913 368.18C212.729 367.828 213.716 367.636 214.898 367.636V365.636ZM211.118 366.345C210.025 366.821 209.128 367.495 208.469 368.385L210.076 369.575C210.497 369.007 211.096 368.535 211.916 368.178L211.118 366.345ZM208.464 368.392C207.806 369.297 207.477 370.333 207.477 371.466H209.477C209.477 370.743 209.679 370.121 210.081 369.568L208.464 368.392ZM207.477 371.466C207.477 372.406 207.703 373.273 208.197 374.02L209.865 372.917C209.621 372.547 209.477 372.078 209.477 371.466H207.477ZM208.208 374.036C208.667 374.702 209.25 375.254 209.948 375.693L211.013 374C210.536 373.7 210.153 373.334 209.854 372.901L208.208 374.036ZM209.958 375.699C210.601 376.093 211.276 376.42 211.982 376.68L212.672 374.803C212.09 374.589 211.534 374.32 211.003 373.994L209.958 375.699ZM211.994 376.684C212.658 376.919 213.277 377.112 213.848 377.263L214.357 375.328C213.848 375.195 213.283 375.019 212.66 374.798L211.994 376.684ZM213.842 377.261L216.797 378.057L217.317 376.125L214.362 375.33L213.842 377.261ZM216.803 378.058C217.519 378.246 218.328 378.509 219.232 378.85L219.938 376.979C218.986 376.62 218.109 376.333 217.311 376.124L216.803 378.058ZM219.235 378.851C220.088 379.17 220.906 379.606 221.69 380.164L222.849 378.534C221.929 377.88 220.958 377.36 219.935 376.978L219.235 378.851ZM221.701 380.172C222.44 380.683 223.053 381.343 223.542 382.163L225.26 381.139C224.631 380.083 223.823 379.209 222.839 378.527L221.701 380.172ZM223.542 382.163C223.988 382.911 224.239 383.874 224.239 385.102H226.239C226.239 383.603 225.931 382.265 225.26 381.139L223.542 382.163ZM224.239 385.102C224.239 386.489 223.878 387.719 223.164 388.819L224.842 389.908C225.775 388.471 226.239 386.86 226.239 385.102H224.239ZM223.161 388.824C222.462 389.912 221.424 390.806 219.994 391.486L220.853 393.292C222.567 392.477 223.914 391.353 224.844 389.904L223.161 388.824ZM219.991 391.487C218.597 392.155 216.854 392.511 214.727 392.511V394.511C217.07 394.511 219.125 394.12 220.855 393.291L219.991 391.487ZM214.727 392.511C212.749 392.511 211.089 392.192 209.719 391.588L208.912 393.418C210.591 394.158 212.539 394.511 214.727 394.511V392.511ZM209.721 391.589C208.348 390.979 207.302 390.147 206.546 389.104L204.926 390.277C205.912 391.639 207.252 392.681 208.91 393.417L209.721 391.589ZM206.549 389.108C205.803 388.067 205.372 386.85 205.27 385.429L203.275 385.571C203.401 387.331 203.945 388.908 204.923 390.273L206.549 389.108ZM204.273 386.5H207.909V384.5H204.273V386.5ZM206.913 385.586C207.023 386.868 207.464 387.991 208.272 388.894L209.762 387.56C209.283 387.024 208.984 386.329 208.905 385.414L206.913 385.586ZM208.281 388.904C209.055 389.746 210.022 390.362 211.156 390.761L211.821 388.875C210.966 388.574 210.286 388.129 209.753 387.55L208.281 388.904ZM211.167 390.765C212.283 391.144 213.472 391.33 214.727 391.33V389.33C213.672 389.33 212.702 389.174 211.81 388.871L211.167 390.765ZM214.727 391.33C216.18 391.33 217.519 391.094 218.726 390.602L217.972 388.75C217.04 389.129 215.964 389.33 214.727 389.33V391.33ZM218.733 390.599C219.935 390.1 220.929 389.39 221.675 388.452L220.109 387.207C219.605 387.842 218.904 388.363 217.965 388.753L218.733 390.599ZM221.678 388.447C222.449 387.467 222.83 386.318 222.83 385.045H220.83C220.83 385.894 220.585 386.601 220.106 387.212L221.678 388.447ZM222.83 385.045C222.83 383.883 222.5 382.845 221.767 382.022L220.273 383.353C220.62 383.742 220.83 384.276 220.83 385.045H222.83ZM221.767 382.022C221.114 381.289 220.275 380.718 219.284 380.292L218.494 382.129C219.265 382.46 219.847 382.874 220.273 383.353L221.767 382.022ZM219.284 380.292C218.358 379.893 217.363 379.547 216.302 379.252L215.766 381.179C216.75 381.453 217.659 381.77 218.494 382.129L219.284 380.292ZM216.309 379.254L212.729 378.232L212.18 380.155L215.759 381.177L216.309 379.254ZM212.731 378.232C210.561 377.608 208.913 376.737 207.732 375.657L206.382 377.133C207.852 378.477 209.802 379.471 212.178 380.154L212.731 378.232ZM207.732 375.657C206.633 374.653 206.068 373.344 206.068 371.636H204.068C204.068 373.849 204.829 375.713 206.382 377.133L207.732 375.657ZM206.068 371.636C206.068 370.199 206.453 368.989 207.198 367.963L205.58 366.787C204.564 368.185 204.068 369.816 204.068 371.636H206.068ZM207.197 367.964C207.977 366.895 209.027 366.054 210.379 365.446L209.559 363.622C207.918 364.359 206.582 365.412 205.581 366.786L207.197 367.964ZM210.381 365.445C211.742 364.829 213.28 364.511 215.011 364.511V362.511C213.031 362.511 211.207 362.876 209.556 363.623L210.381 365.445ZM215.011 364.511C216.766 364.511 218.286 364.826 219.593 365.428L220.43 363.612C218.82 362.87 217.007 362.511 215.011 362.511V364.511ZM219.598 365.43C220.919 366.031 221.933 366.838 222.673 367.841L224.282 366.654C223.317 365.346 222.02 364.335 220.425 363.61L219.598 365.43ZM222.676 367.845C223.413 368.833 223.801 369.946 223.841 371.214L225.84 371.15C225.787 369.482 225.265 367.972 224.279 366.649L222.676 367.845ZM224.841 370.182H221.432V372.182H224.841V370.182Z" fill="#D9D9D9" mask="url(#path-205-outside-4_0_1)"/>
</g>
</g>
</g>
</svg>
